<svg height="512pt" viewBox="-2 0 512 512" width="512pt" xmlns="http://www.w3.org/2000/svg"><path d="m8.25 50.003906h92.9375c4.183594 0 7.574219-3.390625 7.574219-7.578125 0-4.183593-3.390625-7.574219-7.574219-7.574219h-92.9375c-4.1875 0-7.578125 3.390626-7.578125 7.574219 0 4.1875 3.390625 7.578125 7.578125 7.578125zm0 0" fill="#ebe0da"/><g fill="#c8bebc"><path d="m138.558594 15.152344h48.664062c4.183594 0 7.574219-3.390625 7.574219-7.574219 0-4.1875-3.390625-7.578125-7.574219-7.578125h-48.664062c-4.183594 0-7.578125 3.390625-7.578125 7.578125 0 4.183594 3.390625 7.574219 7.578125 7.574219zm0 0"/><path d="m64.144531 85.613281c0 4.183594 3.394531 7.578125 7.578125 7.578125h44.953125c4.183594 0 7.578125-3.394531 7.578125-7.578125 0-4.183593-3.394531-7.578125-7.578125-7.578125h-44.953125c-4.183594 0-7.578125 3.394532-7.578125 7.578125zm0 0"/><path d="m489.421875 87.128906h-44.957031c-4.183594 0-7.574219 3.390625-7.574219 7.574219 0 4.1875 3.390625 7.578125 7.574219 7.578125h44.957031c4.183594 0 7.574219-3.390625 7.574219-7.578125 0-4.183594-3.390625-7.574219-7.574219-7.574219zm0 0"/></g><path d="m454.890625 53.792969c0-4.183594-3.390625-7.578125-7.578125-7.578125h-71.03125c-4.183594 0-7.578125 3.394531-7.578125 7.578125 0 4.183593 3.394531 7.578125 7.578125 7.578125h71.03125c4.1875 0 7.578125-3.394532 7.578125-7.578125zm0 0" fill="#ebe0da"/><path d="m86.1875 446.488281c0-4.1875-3.394531-7.578125-7.578125-7.578125h-71.03125c-4.1875 0-7.578125 3.390625-7.578125 7.578125 0 4.183594 3.390625 7.574219 7.578125 7.574219h71.03125c4.183594 0 7.578125-3.390625 7.578125-7.574219zm0 0" fill="#c8bebc"/><path d="m199.679688 496.847656h-143.867188c-4.183594 0-7.574219 3.390625-7.574219 7.574219 0 4.1875 3.390625 7.578125 7.574219 7.578125h143.867188c4.183593 0 7.578124-3.390625 7.578124-7.578125 0-4.183594-3.394531-7.574219-7.578124-7.574219zm0 0" fill="#ebe0da"/><path d="m507.660156 173.054688-94.828125 305.824218c-.957031 3.101563-4.25 4.839844-7.351562 3.878906l-65.847657-20.414062-253.578124-78.632812-28.164063-8.738282c-3.039063-.941406-4.769531-4.125-3.917969-7.175781l95.117188-306.746094c.992187-3.058593 4.265625-4.757812 7.34375-3.808593l28.144531 8.730468 253.582031 78.632813 65.15625 20.203125c3.476563 1.070312 5.425782 4.769531 4.34375 8.246094zm0 0" fill="#fcd226"/><path d="m438.160156 144.605469-98.527344 317.738281-253.578124-78.632812-28.164063-8.738282c-3.039063-.941406-4.769531-4.125-3.917969-7.175781l95.117188-306.746094c.992187-3.058593 4.265625-4.757812 7.34375-3.808593l28.144531 8.730468zm0 0" fill="#ffcf2f"/><path d="m438.160156 144.605469-98.527344 317.738281-243.535156-75.519531c-5.546875-1.722657-8.648437-7.613281-6.929687-13.160157l92.296875-297.648437c1.71875-5.546875 7.609375-8.648437 13.160156-6.929687l55.476562 17.199218 88.917969 27.582032zm0 0" fill="#ffdd81"/><path d="m339.019531 113.867188-29.074219 93.472656c-.910156 2.910156-4.757812 3.503906-6.496093 1l-27.769531-40.054688c-.960938-1.375-2.730469-1.929687-4.304688-1.335937l-45.558594 17.316406c-2.851562 1.082031-5.6875-1.585937-4.789062-4.496094l29.074218-93.484375zm0 0" fill="#f44745"/><path d="m342.296875 276.699219-29.519531 95.195312c-.9375 3.019531-4.136719 4.710938-7.15625 3.773438l-176.253906-54.648438c-3.019532-.9375-4.710938-4.148437-3.773438-7.167969l29.515625-95.195312c.9375-3.019531 4.148437-4.710938 7.167969-3.773438l176.253906 54.652344c3.019531.9375 4.699219 4.144532 3.765625 7.164063zm0 0" fill="#eea900"/><path d="m342.296875 276.699219-29.519531 95.195312c-.9375 3.019531-4.136719 4.710938-7.15625 3.773438l-142.484375-44.179688c-3.019531-.933593-4.710938-4.144531-3.773438-7.164062l29.515625-95.195313c.9375-3.019531 4.148438-4.710937 7.167969-3.773437l142.484375 44.179687c3.019531.9375 4.699219 4.144532 3.765625 7.164063zm0 0" fill="#fec105"/><path d="m171.992188 266.546875 129.292968 40.089844c3.996094 1.238281 8.242188-.996094 9.480469-4.992188 1.238281-3.996093-.996094-8.242187-4.992187-9.480469l-129.292969-40.089843c-3.996094-1.242188-8.242188.996093-9.480469 4.992187s.996094 8.242188 4.992188 9.480469zm0 0" fill="#e38803"/><path d="m295.902344 324.003906-129.292969-40.089844c-3.996094-1.238281-8.242187.996094-9.480469 4.992188-1.242187 3.996094.996094 8.242188 4.992188 9.480469l129.292968 40.09375c3.996094 1.238281 8.238282-.996094 9.480469-4.996094 1.238281-3.996094-.996093-8.242187-4.992187-9.480469zm0 0" fill="#e38803"/></svg>