<svg height="512pt" viewBox="0 -2 512 512" width="512pt" xmlns="http://www.w3.org/2000/svg"><g fill="#c6c5ca"><path d="m336 443.902344h176v32h-176zm0 0"/><path d="m0 443.902344h176v32h-176zm0 0"/><path d="m240 363.902344h32v64h-32zm0 0"/></g><path d="m432 379.902344h-352v-233.503906l176-130.414063 176 130.414063zm0 0" fill="#ef5350"/><path d="m128 443.902344h48v32h-48zm0 0" fill="#acabb1"/><path d="m336 443.902344h48v32h-48zm0 0" fill="#acabb1"/><path d="m160 411.902344h192v96h-192zm0 0" fill="#57565c"/><path d="m160 475.902344h192v32h-192zm0 0" fill="#2d2d30"/><path d="m160 155.902344h192v160h-192zm0 0" fill="#ffca28"/><path d="m160 155.902344h192v32h-192zm0 0" fill="#e8a600"/><path d="m240 155.902344h32v160h-32zm0 0" fill="#e8a600"/><path d="m80 146.398438v63.664062l176-130.414062 176 130.414062v-63.664062l-176-130.414063zm0 0" fill="#e53935"/><path d="m478.464844 204.671875-222.464844-164.863281-222.464844 164.863281-19.070312-25.710937 241.535156-178.960938 241.535156 178.960938zm0 0" fill="#c6c5ca"/><path d="m192 187.902344h32v32h-32zm0 0" fill="#fff"/><path d="m288 187.902344h32v32h-32zm0 0" fill="#fff"/></svg>