<svg height="512pt" viewBox="-28 0 511 512" width="512pt" xmlns="http://www.w3.org/2000/svg"><g fill="#54cbff"><path d="m212.703125 71.085938h30.609375v57.332031h-30.609375zm0 0"/><path d="m75.515625 150.285156 49.652344 28.667969-15.304688 26.507813-49.652343-28.667969zm0 0"/><path d="m109.875 306.53125 15.304688 26.507812-49.652344 28.667969-15.304688-26.507812zm0 0"/><path d="m212.703125 383.582031h30.609375v57.332031h-30.609375zm0 0"/><path d="m346.140625 306.527344 49.652344 28.667968-15.304688 26.507813-49.652343-28.667969zm0 0"/><path d="m380.5 150.277344 15.304688 26.507812-49.652344 28.667969-15.304688-26.507813zm0 0"/></g><path d="m228.007812 400.449219c-79.21875 0-143.667968-64.449219-143.667968-143.667969s64.449218-143.667969 143.667968-143.667969 143.667969 64.449219 143.667969 143.667969-64.449219 143.667969-143.667969 143.667969zm0-256.726563c-62.339843 0-113.058593 50.71875-113.058593 113.058594s50.71875 113.058594 113.058593 113.058594c62.339844 0 113.058594-50.71875 113.058594-113.058594s-50.71875-113.058594-113.058594-113.058594zm0 0" fill="#0074f0"/><path d="m228.007812 335.960938c8.003907 0 15.675782-7.039063 15.304688-15.304688-.371094-8.292969-6.722656-15.304688-15.304688-15.304688-8.003906 0-15.675781 7.039063-15.304687 15.304688.371094 8.292969 6.726563 15.304688 15.304687 15.304688zm0 0" fill="#feeb70"/><path d="m228.007812 293.984375c-8.453124 0-15.304687-6.851563-15.304687-15.304687v-22.679688c0-8.453125 6.851563-15.304688 15.304687-15.304688 8.957032 0 16.242188-7.285156 16.242188-16.242187 0-8.953125-7.285156-16.242187-16.242188-16.242187-8.953124 0-16.242187 7.289062-16.242187 16.242187 0 8.453125-6.851563 15.304687-15.304687 15.304687-8.453126 0-15.304688-6.851562-15.304688-15.304687 0-25.832031 21.019531-46.851563 46.851562-46.851563 25.832032 0 46.851563 21.019532 46.851563 46.851563 0 20.476563-13.203125 37.929687-31.546875 44.285156v9.941407c0 8.453124-6.851562 15.304687-15.304688 15.304687zm0 0" fill="#feeb70"/><path d="m228.007812 86.390625c-23.816406 0-43.195312-19.378906-43.195312-43.195313 0-23.820312 19.378906-43.195312 43.195312-43.195312 23.816407 0 43.195313 19.375 43.195313 43.195312 0 23.816407-19.375 43.195313-43.195313 43.195313zm0-55.78125c-6.941406 0-12.585937 5.644531-12.585937 12.585937 0 6.941407 5.644531 12.585938 12.585937 12.585938 6.941407 0 12.585938-5.644531 12.585938-12.585938 0-6.941406-5.644531-12.585937-12.585938-12.585937zm0 0" fill="#003773"/><path d="m43.644531 192.8125c-7.484375 0-14.871093-1.964844-21.527343-5.808594-9.992188-5.765625-17.140626-15.082031-20.125-26.226562-2.988282-11.144532-1.457032-22.785156 4.3125-32.777344 5.769531-9.992188 15.082031-17.136719 26.226562-20.125 11.148438-2.988281 22.785156-1.453125 32.777344 4.316406 9.992187 5.765625 17.140625 15.082032 20.125 26.226563 2.988281 11.144531 1.457031 22.785156-4.3125 32.777343-5.769532 9.992188-15.082032 17.136719-26.226563 20.125-3.722656.996094-7.5 1.492188-11.25 1.492188zm.089844-55.804688c-1.09375 0-2.195313.140626-3.277344.433594-3.246093.871094-5.960937 2.953125-7.640625 5.863282-1.683594 2.910156-2.128906 6.304687-1.257812 9.550781.871094 3.246093 2.953125 5.960937 5.863281 7.640625 2.910156 1.679687 6.304687 2.128906 9.550781 1.257812s5.960938-2.953125 7.640625-5.863281c1.679688-2.914063 2.128907-6.304687 1.257813-9.550781s-2.953125-5.960938-5.863282-7.640625c-1.941406-1.121094-4.09375-1.691407-6.273437-1.691407zm0 0" fill="#003773"/><path d="m43.785156 405.617188c-3.753906 0-7.53125-.496094-11.25-1.492188-11.144531-2.988281-20.460937-10.132812-26.226562-20.125-5.769532-9.992188-7.300782-21.632812-4.316406-32.777344 2.988281-11.144531 10.132812-20.460937 20.125-26.226562 9.992187-5.769532 21.632812-7.304688 32.777343-4.316406 11.144531 2.988281 20.460938 10.132812 26.226563 20.125 5.769531 9.992187 7.304687 21.632812 4.316406 32.777343s-10.132812 20.460938-20.125 26.226563c-6.65625 3.84375-14.042969 5.808594-21.527344 5.808594zm-.089844-55.804688c-2.183593 0-4.332031.570312-6.273437 1.691406-2.910156 1.679688-4.996094 4.394532-5.863281 7.640625-.871094 3.246094-.425782 6.640625 1.257812 9.550781 1.679688 2.910157 4.394532 4.992188 7.640625 5.863282 3.246094.871094 6.636719.425781 9.550781-1.257813 2.910157-1.679687 4.992188-4.394531 5.863282-7.640625s.421875-6.640625-1.257813-9.550781c-1.679687-2.910156-4.394531-4.992187-7.640625-5.863281-1.085937-.292969-2.1875-.433594-3.277344-.433594zm-13.925781-11.5625h.007813zm0 0" fill="#003773"/><path d="m228.007812 512c-23.816406 0-43.195312-19.375-43.195312-43.195312 0-23.816407 19.378906-43.195313 43.195312-43.195313 23.820313 0 43.195313 19.378906 43.195313 43.195313 0 23.820312-19.375 43.195312-43.195313 43.195312zm0-55.78125c-6.941406 0-12.585937 5.644531-12.585937 12.585938 0 6.941406 5.644531 12.585937 12.585937 12.585937 6.941407 0 12.585938-5.644531 12.585938-12.585937 0-6.941407-5.644531-12.585938-12.585938-12.585938zm0 0" fill="#003773"/><path d="m412.234375 405.617188c-7.484375 0-14.871094-1.964844-21.527344-5.808594-9.992187-5.765625-17.140625-15.082032-20.125-26.226563-2.988281-11.144531-1.457031-22.785156 4.3125-32.777343 5.769531-9.992188 15.082031-17.136719 26.226563-20.125 11.144531-2.988282 22.785156-1.453126 32.777344 4.316406 9.992187 5.765625 17.140624 15.082031 20.125 26.226562 2.988281 11.144532 1.457031 22.785156-4.3125 32.777344-5.769532 9.992188-15.082032 17.136719-26.226563 20.125-3.722656.996094-7.5 1.492188-11.25 1.492188zm.089844-55.804688c-1.09375 0-2.195313.144531-3.277344.433594-3.246094.871094-5.960937 2.953125-7.640625 5.863281-1.683594 2.910156-2.128906 6.304687-1.257812 9.550781.871093 3.246094 2.953124 5.960938 5.863281 7.640625 2.914062 1.683594 6.304687 2.128907 9.550781 1.257813s5.960938-2.953125 7.640625-5.863282c1.679687-2.910156 2.125-6.304687 1.257813-9.550781-.871094-3.246093-2.953126-5.960937-5.863282-7.640625-1.941406-1.121094-4.09375-1.691406-6.273437-1.691406zm0 0" fill="#003773"/><path d="m412.375 192.8125c-3.753906 0-7.53125-.496094-11.25-1.492188-11.144531-2.988281-20.460938-10.132812-26.226562-20.125-5.769532-9.992187-7.300782-21.632812-4.316407-32.777343 2.988281-11.144531 10.132813-20.460938 20.125-26.226563 9.992188-5.769531 21.632813-7.304687 32.777344-4.316406s20.460937 10.132812 26.226563 20.125c5.769531 9.992188 7.300781 21.632812 4.316406 32.777344-2.988282 11.144531-10.132813 20.460937-20.125 26.226562-6.65625 3.84375-14.042969 5.808594-21.527344 5.808594zm-.09375-55.804688c-2.179688 0-4.332031.570313-6.269531 1.691407-2.914063 1.679687-4.996094 4.394531-5.863281 7.640625-.871094 3.246094-.425782 6.636718 1.257812 9.550781 1.679688 2.910156 4.394531 4.992187 7.640625 5.863281s6.636719.421875 9.550781-1.257812c2.910156-1.679688 4.992188-4.394532 5.863282-7.640625.867187-3.25.421874-6.640625-1.257813-9.550781-1.679687-2.910157-4.394531-4.996094-7.640625-5.863282-1.085938-.292968-2.1875-.433594-3.28125-.433594zm0 0" fill="#003773"/></svg>