<svg height="512pt" viewBox="0 -94 512 511" width="512pt" xmlns="http://www.w3.org/2000/svg"><path d="m512 322.5h-452v-322h452zm0 0" fill="#deecf1"/><path d="m286 .5h226v322h-226zm0 0" fill="#c6e2e7"/><path d="m90 322.5h-90v-322h90zm0 0" fill="#00c0f1"/><path d="m452 90.5h-30v-30h-30v30h-30v30h30v30h30v-30h30zm0 0" fill="#c92e01"/><g fill="#a8d3d8"><path d="m120 60.5h100v30h-100zm0 0"/><path d="m120 120.5h136v30h-136zm0 0"/><path d="m120 232.5h332v30h-332zm0 0"/></g><path d="m286 232.5h166v30h-166zm0 0" fill="#8ebac5"/></svg>