<?xml version="1.0" encoding="iso-8859-1"?>
<!-- Generator: Adobe Illustrator 19.0.0, SVG Export Plug-In . SVG Version: 6.00 Build 0)  -->
<svg version="1.1" id="Layer_1" xmlns="http://www.w3.org/2000/svg" xmlns:xlink="http://www.w3.org/1999/xlink" x="0px" y="0px"
	 viewBox="0 0 512 512" style="enable-background:new 0 0 512 512;" xml:space="preserve">
<path style="fill:#2D2D2D;" d="M0,355.2v-324c0-5.6,4.8-10.4,10.4-10.4h491.2c5.6,0,10.4,4.8,10.4,10.4v324"/>
<g>
	<path style="fill:#BCBCBC;" d="M0,355.2v41.6c0,5.6,4.8,10.4,10.4,10.4h491.2c5.6,0,10.4-4.8,10.4-10.4v-41.6H0z"/>
	<rect x="146.4" y="480.8" style="fill:#BCBCBC;" width="219.2" height="10.4"/>
</g>
<polygon style="fill:#2D2D2D;" points="328.8,480.8 183.2,480.8 193.6,407.2 318.4,407.2 "/>
<rect x="20.8" y="41.6" style="fill:#EFEFEF;" width="470.4" height="292.8"/>
<path style="fill:#35B0F6;" d="M405.6,208.8H106.4c-6.4,0-12-5.6-12-12v-90.4c0-6.4,5.6-12,12-12h300c6.4,0,12,5.6,12,12v91.2
	C417.6,203.2,412.8,208.8,405.6,208.8z"/>
<g>
	
		<rect x="408.281" y="231.021" transform="matrix(0.7071 -0.7071 0.7071 0.7071 -62.5835 375.7523)" style="fill:#2D2D2D;" width="28" height="64.799"/>
	<polygon style="fill:#2D2D2D;" points="368.8,270.4 356,198.4 428,211.2 	"/>
</g>
<g>
	<path style="fill:#FFFFFF;" d="M210.4,176c-2.4,0.8-6.4,2.4-12,2.4c-12.8,0-20.8-8.8-20.8-21.6s8.8-22.4,22.4-22.4
		c4.8,0,8.8,0.8,10.4,2.4l-1.6,5.6c-1.6-0.8-4.8-2.4-8.8-2.4c-9.6,0-15.2,7.2-15.2,16c0,9.6,6.4,16,14.4,16c4,0,7.2-0.8,9.6-2.4
		L210.4,176z"/>
	<path style="fill:#FFFFFF;" d="M219.2,115.2h8v62.4h-8V115.2z"/>
	<path style="fill:#FFFFFF;" d="M248.8,123.2c0,2.4-1.6,4.8-4.8,4.8c-2.4,0-4.8-2.4-4.8-4.8s2.4-4.8,4.8-4.8
		C246.4,118.4,248.8,120.8,248.8,123.2z M240,177.6v-42.4h8v42.4H240z"/>
	<path style="fill:#FFFFFF;" d="M290.4,176c-2.4,0.8-6.4,2.4-12,2.4c-12.8,0-20.8-8.8-20.8-21.6s8.8-22.4,22.4-22.4
		c4.8,0,8.8,0.8,10.4,2.4l-1.6,5.6c-1.6-0.8-4.8-2.4-8.8-2.4c-9.6,0-15.2,7.2-15.2,16c0,9.6,6.4,16,14.4,16c4,0,7.2-0.8,9.6-2.4
		L290.4,176z"/>
	<path style="fill:#FFFFFF;" d="M307.2,154.4L307.2,154.4c1.6-1.6,2.4-3.2,4-4.8l12.8-14.4h9.6l-16,17.6l18.4,24.8h-9.6l-14.4-20
		l-4,4v16h-8v-62.4h8v39.2C308,154.4,307.2,154.4,307.2,154.4z"/>
</g>
<g>
</g>
<g>
</g>
<g>
</g>
<g>
</g>
<g>
</g>
<g>
</g>
<g>
</g>
<g>
</g>
<g>
</g>
<g>
</g>
<g>
</g>
<g>
</g>
<g>
</g>
<g>
</g>
<g>
</g>
</svg>
